<mxfile host="app.diagrams.net" modified="2024-04-15T08:19:26.305Z" agent="Mozilla/5.0 (Windows NT 10.0; Win64; x64) AppleWebKit/537.36 (KHTML, like Gecko) Chrome/123.0.0.0 Safari/537.36" etag="qP2eJmROB6jZX0-0cQ8d" version="24.0.7" type="github">
  <diagram name="第 1 页" id="CFaM-rl-ZOH5OktTk7fv">
    <mxGraphModel dx="2389" dy="818" grid="1" gridSize="10" guides="1" tooltips="1" connect="1" arrows="1" fold="1" page="1" pageScale="1" pageWidth="827" pageHeight="1169" math="0" shadow="0">
      <root>
        <mxCell id="0" />
        <mxCell id="1" parent="0" />
        <mxCell id="jfIY2fFk3yskJFNDOf-c-1" value="CommitLog" style="shape=cylinder3;whiteSpace=wrap;html=1;boundedLbl=1;backgroundOutline=1;size=15;" vertex="1" parent="1">
          <mxGeometry x="30" y="320" width="70" height="110" as="geometry" />
        </mxCell>
        <mxCell id="jfIY2fFk3yskJFNDOf-c-2" value="&lt;div style=&quot;background-color:#ffffff;color:#080808&quot;&gt;&lt;pre style=&quot;font-family:&#39;JetBrains Mono&#39;,monospace;font-size:11.3pt;&quot;&gt;&lt;span style=&quot;color:#000000;&quot;&gt;TimerEnqueueGetService&lt;/span&gt;&lt;/pre&gt;&lt;/div&gt;" style="rounded=0;whiteSpace=wrap;html=1;" vertex="1" parent="1">
          <mxGeometry x="-32.5" y="170" width="195" height="50" as="geometry" />
        </mxCell>
        <mxCell id="jfIY2fFk3yskJFNDOf-c-3" value="" style="endArrow=classic;html=1;rounded=0;entryX=0.5;entryY=1;entryDx=0;entryDy=0;" edge="1" parent="1" source="jfIY2fFk3yskJFNDOf-c-1" target="jfIY2fFk3yskJFNDOf-c-2">
          <mxGeometry width="50" height="50" relative="1" as="geometry">
            <mxPoint x="60" y="260" as="sourcePoint" />
            <mxPoint x="110" y="210" as="targetPoint" />
          </mxGeometry>
        </mxCell>
        <mxCell id="jfIY2fFk3yskJFNDOf-c-10" value="2.读取消息内容" style="edgeLabel;html=1;align=center;verticalAlign=middle;resizable=0;points=[];" vertex="1" connectable="0" parent="jfIY2fFk3yskJFNDOf-c-3">
          <mxGeometry x="-0.256" y="-1" relative="1" as="geometry">
            <mxPoint as="offset" />
          </mxGeometry>
        </mxCell>
        <mxCell id="jfIY2fFk3yskJFNDOf-c-4" value="ComsumerQueue" style="shape=cylinder3;whiteSpace=wrap;html=1;boundedLbl=1;backgroundOutline=1;size=15;" vertex="1" parent="1">
          <mxGeometry x="-250" y="140" width="70" height="110" as="geometry" />
        </mxCell>
        <mxCell id="jfIY2fFk3yskJFNDOf-c-6" value="" style="endArrow=classic;html=1;rounded=0;exitX=1;exitY=0.5;exitDx=0;exitDy=0;exitPerimeter=0;entryX=0;entryY=0.5;entryDx=0;entryDy=0;" edge="1" parent="1" source="jfIY2fFk3yskJFNDOf-c-4" target="jfIY2fFk3yskJFNDOf-c-2">
          <mxGeometry width="50" height="50" relative="1" as="geometry">
            <mxPoint x="-160" y="190" as="sourcePoint" />
            <mxPoint x="-110" y="140" as="targetPoint" />
          </mxGeometry>
        </mxCell>
        <mxCell id="jfIY2fFk3yskJFNDOf-c-15" value="1.读取消息位置" style="edgeLabel;html=1;align=center;verticalAlign=middle;resizable=0;points=[];" vertex="1" connectable="0" parent="jfIY2fFk3yskJFNDOf-c-6">
          <mxGeometry x="-0.2579" y="-1" relative="1" as="geometry">
            <mxPoint as="offset" />
          </mxGeometry>
        </mxCell>
        <mxCell id="jfIY2fFk3yskJFNDOf-c-16" value="Topic：&lt;span style=&quot;color: rgb(6, 125, 23); font-family: &amp;quot;JetBrains Mono&amp;quot;, monospace; font-size: 11.3pt; background-color: rgb(255, 255, 255);&quot;&gt;rmq_sys_&lt;/span&gt;&lt;span style=&quot;color: rgb(6, 125, 23); font-family: &amp;quot;JetBrains Mono&amp;quot;, monospace; font-size: 11.3pt; background-color: rgb(255, 255, 255);&quot;&gt;wheel_timer&lt;/span&gt;" style="text;html=1;align=center;verticalAlign=middle;resizable=0;points=[];autosize=1;strokeColor=none;fillColor=none;" vertex="1" parent="1">
          <mxGeometry x="-300" y="90" width="210" height="30" as="geometry" />
        </mxCell>
      </root>
    </mxGraphModel>
  </diagram>
</mxfile>
